<svg viewBox="0 0 26 22" fill="none" xmlns="http://www.w3.org/2000/svg">
<path d="M8.79143 21.3907C11.3846 21.3907 13.3769 20.5569 14.5154 19.3703C15.3059 18.5685 16.0649 17.1895 16.0649 15.1691C16.0649 13.4694 15.4957 12.0904 14.6418 11.2566C13.9777 10.6152 12.8709 10.102 11.7641 9.97376C12.5547 9.62099 13.029 9.13994 13.4718 8.30612C13.9145 7.40816 14.0726 6.60641 14.0726 5.67639C14.0726 3.78426 13.5034 2.46939 12.776 1.66764C11.4795 0.224491 9.6769 0 8.15896 0H0V21.3907H8.79143ZM5.47093 4.26531H6.48289C7.5581 4.26531 8.2222 4.55394 8.57007 4.90671C8.8863 5.25948 9.07605 5.80467 9.07605 6.34986C9.07605 6.8309 8.91793 7.40816 8.57007 7.76093C8.00084 8.37026 7.05212 8.4344 6.48289 8.4344H5.47093V4.26531ZM5.47093 12.5714H6.60939C7.96921 12.5714 9.32904 12.6035 9.99314 13.277C10.3094 13.5977 10.5307 14.1429 10.5307 14.8163C10.5307 15.4257 10.341 15.9067 10.088 16.1953C9.48716 16.9009 8.2222 17.0612 6.70426 17.0612H5.47093V12.5714Z" fill="#333"/>
<path d="M25.3359 14.1108V0H20.0863V14.1108H25.3359ZM22.7427 22C23.565 22 24.3872 21.6793 25.0513 21.0058C25.6205 20.4286 26 19.723 26 18.6647C26 17.6064 25.6205 16.9009 25.0829 16.3557C24.3872 15.6501 23.5333 15.3294 22.7427 15.3294C22.047 15.3294 21.1932 15.5539 20.4342 16.3236C20.0231 16.7405 19.4539 17.5102 19.4539 18.6647C19.4539 19.8192 20.0231 20.5889 20.4342 21.0058C21.1932 21.7755 22.047 22 22.7427 22Z" fill="#333"/>
</svg>
