<svg viewBox="0 0 306 44" fill="none" xmlns="http://www.w3.org/2000/svg">
<path d="M21.3443 12.7585C21.8432 12.0999 21.3734 11.1548 20.5472 11.1548H7.45053C6.89824 11.1548 6.45053 11.6025 6.45053 12.1548V14.074C6.45053 14.6263 6.89824 15.074 7.45053 15.074H12.3784C13.2046 15.074 13.6744 16.0191 13.1756 16.6778L6.21465 25.8687C5.71581 26.5273 6.1856 27.4724 7.01182 27.4724H20.9101C21.4624 27.4724 21.9101 27.0247 21.9101 26.4724V24.5532C21.9101 24.0009 21.4624 23.5532 20.9101 23.5532H15.1806C14.3544 23.5532 13.8846 22.608 14.3834 21.9494L21.3443 12.7585Z" fill="#231815"/>
<path d="M41.3246 10.6272C38.1945 10.6272 36.0569 11.6447 34.6445 12.926C33.0031 14.3957 31.858 16.6568 31.858 19.3324C31.858 21.9704 33.0031 24.2315 34.6445 25.7012C36.0569 26.9825 38.1945 28 41.3246 28C44.4546 28 46.5923 26.9825 48.0046 25.7012C49.646 24.2315 50.7912 21.9704 50.7912 19.3324C50.7912 16.6568 49.646 14.3957 48.0046 12.926C46.5923 11.6447 44.4546 10.6272 41.3246 10.6272ZM41.3246 23.93C38.6144 23.93 36.6676 21.8196 36.6676 19.3324C36.6676 16.7699 38.6525 14.6972 41.3246 14.6972C43.9966 14.6972 45.9815 16.7699 45.9815 19.3324C45.9815 21.8196 44.0348 23.93 41.3246 23.93Z" fill="#231815"/>
<path d="M70.3149 10.6272C67.1848 10.6272 65.0472 11.6447 63.6348 12.926C61.9934 14.3957 60.8483 16.6568 60.8483 19.3324C60.8483 21.9704 61.9934 24.2315 63.6348 25.7012C65.0472 26.9825 67.1848 28 70.3149 28C73.4449 28 75.5826 26.9825 76.9949 25.7012C78.6363 24.2315 79.7814 21.9704 79.7814 19.3324C79.7814 16.6568 78.6363 14.3957 76.9949 12.926C75.5826 11.6447 73.4449 10.6272 70.3149 10.6272ZM70.3149 23.93C67.6047 23.93 65.6579 21.8196 65.6579 19.3324C65.6579 16.7699 67.6428 14.6972 70.3149 14.6972C72.9869 14.6972 74.9718 16.7699 74.9718 19.3324C74.9718 21.8196 73.025 23.93 70.3149 23.93Z" fill="#231815"/>
<path d="M91.2085 26.4724C91.2085 27.0247 91.6562 27.4724 92.2085 27.4724H94.8655C95.4177 27.4724 95.8655 27.0247 95.8655 26.4724V19.144C95.8655 18.2019 95.9036 17.0336 96.5907 15.9785C97.2778 14.961 98.2321 14.5464 99.4536 14.5464C99.9117 14.5464 100.904 14.6218 101.629 15.3755C102.469 16.2423 102.507 17.6743 102.507 18.5787V26.4724C102.507 27.0247 102.955 27.4724 103.507 27.4724H106.164C106.717 27.4724 107.164 27.0247 107.164 26.4724V17.2221C107.164 15.6393 107.012 14.0188 105.866 12.6245C104.569 11.0417 102.431 10.6272 100.98 10.6272C99.1648 10.6272 97.8602 11.2884 96.9351 12.0906C96.556 12.4193 95.8655 12.1747 95.8655 11.673V11.673C95.8655 11.3868 95.6335 11.1548 95.3473 11.1548H92.2085C91.6562 11.1548 91.2085 11.6025 91.2085 12.1548V26.4724Z" fill="#231815"/>
<path d="M132.05 22.3418C131.642 22.277 131.244 22.478 130.985 22.8005C130.193 23.786 129.006 24.3822 127.517 24.3822C125.723 24.3822 124.692 23.5155 124.196 22.8371C123.84 22.361 123.603 21.7349 123.484 21.0808C123.385 20.5374 123.842 20.0861 124.394 20.0861H135.385C135.593 20.0861 135.762 19.9174 135.762 19.7093V19.7093C135.762 17.9381 135.533 15.3755 133.777 13.3028C132.632 11.9462 130.685 10.6272 127.326 10.6272C125.341 10.6272 123.051 11.0417 121.104 12.926C119.92 14.0942 118.584 16.0915 118.584 19.3324C118.584 21.895 119.348 24.0054 121.18 25.7012C122.822 27.2463 124.845 28 127.517 28C131.998 28 134.125 25.6542 135.084 24.0433C135.414 23.4884 135.035 22.8154 134.398 22.7143L132.05 22.3418ZM124.737 17.1467C124.116 17.1467 123.635 16.575 123.908 16.0171C124.609 14.5844 126.05 13.8681 127.44 13.8681C128.836 13.8681 130.308 14.565 131.015 16.0194C131.286 16.5769 130.806 17.1467 130.186 17.1467H124.737Z" fill="#231815"/>
<path d="M157.609 13.169C157.984 12.7309 157.914 12.0611 157.416 11.7689C155.662 10.7381 154.081 10.6272 153.033 10.6272C151.697 10.6272 150.017 10.7779 148.72 11.7954C147.765 12.5868 147.002 13.9058 147.002 15.4886C147.002 16.8075 147.498 17.825 148.262 18.6164C149.254 19.6339 150.628 20.1615 151.811 20.576L152.88 20.9529C153.491 21.179 154.331 21.5935 154.331 22.611C154.331 23.7416 153.338 24.3822 152.04 24.3822C151.036 24.3822 150.031 23.9389 149.205 23.2879C148.729 22.9125 148.02 22.9044 147.62 23.3605L146.532 24.6029C146.192 24.9906 146.198 25.5783 146.585 25.9186C147.716 26.9126 149.532 28 152.346 28C154.369 28 155.972 27.4724 157.308 26.2665C158.644 25.0606 159.14 23.5908 159.14 22.1211C159.14 21.066 158.797 20.0861 158.301 19.4078C157.346 18.1265 155.4 17.4859 154.102 17.0713L152.995 16.7322C151.697 16.3176 151.506 15.677 151.506 15.2625C151.506 14.4711 152.193 13.9435 153.3 13.9435C153.67 13.9435 154.379 13.9853 155.175 14.4279C155.669 14.7031 156.316 14.6794 156.684 14.2493L157.609 13.169Z" fill="#231815"/>
<path d="M179.93 13.169C180.305 12.7309 180.235 12.0611 179.738 11.7689C177.984 10.7381 176.402 10.6272 175.354 10.6272C174.018 10.6272 172.339 10.7779 171.041 11.7954C170.087 12.5868 169.323 13.9058 169.323 15.4886C169.323 16.8075 169.82 17.825 170.583 18.6164C171.575 19.6339 172.95 20.1615 174.133 20.576L175.202 20.9529C175.813 21.179 176.652 21.5935 176.652 22.611C176.652 23.7416 175.66 24.3822 174.362 24.3822C173.357 24.3822 172.352 23.9389 171.526 23.2879C171.05 22.9125 170.341 22.9044 169.942 23.3605L168.854 24.6029C168.514 24.9906 168.52 25.5783 168.907 25.9186C170.038 26.9126 171.853 28 174.667 28C176.69 28 178.294 27.4724 179.63 26.2665C180.966 25.0606 181.462 23.5908 181.462 22.1211C181.462 21.066 181.118 20.0861 180.622 19.4078C179.668 18.1265 177.721 17.4859 176.423 17.0713L175.316 16.7322C174.018 16.3176 173.828 15.677 173.828 15.2625C173.828 14.4711 174.515 13.9435 175.622 13.9435C175.992 13.9435 176.701 13.9853 177.496 14.4279C177.991 14.7031 178.637 14.6794 179.006 14.2493L179.93 13.169Z" fill="#231815"/>
<path d="M221.569 12.2365C221.569 11.8518 221.35 11.497 220.993 11.352C219.825 10.8767 218.576 10.6272 217.103 10.6272C215.499 10.6272 213.171 10.9664 211.148 12.7376C209.468 14.2073 208.285 16.5061 208.285 19.3701C208.285 22.4226 209.659 24.4576 210.919 25.6258C212.408 27.0202 214.698 28 217.294 28C218.848 28 220.098 27.6251 221.004 27.2416C221.354 27.0932 221.569 26.7415 221.569 26.3609V24.7392C221.569 23.8741 220.473 23.3541 219.656 23.6363C219.024 23.8543 218.421 23.93 217.904 23.93C215.118 23.93 213.095 21.9704 213.095 19.2948C213.095 16.9206 214.66 14.6972 217.752 14.6972C218.447 14.6972 219.071 14.7966 219.636 14.983C220.461 15.2554 221.569 14.7337 221.569 13.8649V12.2365Z" fill="#231815"/>
<path d="M245.578 11.6368C245.578 12.1168 244.878 12.3512 244.515 12.0378C243.044 10.7699 241.272 10.6272 240.272 10.6272C235.386 10.6272 232.065 14.4711 232.065 19.2948C232.065 24.0808 235.424 28 240.501 28C241.446 28 243.049 27.8316 244.512 26.5534C244.886 26.2267 245.578 26.4668 245.578 26.9633V26.9633C245.578 27.2445 245.806 27.4724 246.087 27.4724H249.235C249.787 27.4724 250.235 27.0247 250.235 26.4724V12.1548C250.235 11.6025 249.787 11.1548 249.235 11.1548H246.06C245.793 11.1548 245.578 11.3706 245.578 11.6368V11.6368ZM241.455 14.6972C244.127 14.6972 246.036 16.6945 246.036 19.2948C246.036 21.895 244.127 23.93 241.455 23.93C238.783 23.93 236.874 21.895 236.874 19.2948C236.874 16.6945 238.783 14.6972 241.455 14.6972Z" fill="#231815"/>
<path d="M262.5 26.4724C262.5 27.0247 262.947 27.4724 263.5 27.4724H266.157C266.709 27.4724 267.157 27.0247 267.157 26.4724V19.6339C267.157 18.5034 267.195 17.109 268.073 16.0162C268.989 14.8856 270.287 14.6972 271.165 14.6972C271.417 14.6972 271.646 14.7104 271.857 14.7375C272.59 14.8319 273.462 14.4457 273.566 13.7134L273.836 11.8154C273.903 11.3436 273.63 10.878 273.166 10.7691C272.809 10.6852 272.411 10.6272 271.966 10.6272C270.859 10.6272 269.943 10.891 269.218 11.3432C269.045 11.4381 268.708 11.657 268.323 12.029C267.96 12.379 267.157 12.1398 267.157 11.6361V11.6361C267.157 11.3703 266.941 11.1548 266.675 11.1548H263.5C262.947 11.1548 262.5 11.6025 262.5 12.1548V26.4724Z" fill="#231815"/>
<path d="M296.343 9.88697C296.343 10.8828 294.715 11.5082 293.795 11.1274C292.744 10.6925 291.714 10.6272 291.037 10.6272C286.151 10.6272 282.83 14.4711 282.83 19.2948C282.83 24.0808 286.189 28 291.266 28C292.212 28 293.815 27.8316 295.278 26.5534C295.651 26.2267 296.343 26.4668 296.343 26.9633V26.9633C296.343 27.2445 296.571 27.4724 296.852 27.4724H300C300.552 27.4724 301 27.0247 301 26.4724V0.999999C301 0.447715 300.552 0 300 0H297.343C296.791 0 296.343 0.447715 296.343 1V9.88697ZM292.22 14.6972C294.893 14.6972 296.801 16.6945 296.801 19.2948C296.801 21.895 294.893 23.93 292.22 23.93C289.548 23.93 287.64 21.895 287.64 19.2948C287.64 16.6945 289.548 14.6972 292.22 14.6972Z" fill="#231815"/>
<path d="M196 38V41L306 38V43H194V40L0 44V38H196Z" fill="#F9F7F2"/>
</svg>
