<svg viewBox="0 0 300 44" fill="none" xmlns="http://www.w3.org/2000/svg">
<path d="M20.9315 12.7509C21.4214 12.0911 20.9505 11.1548 20.1286 11.1548H7.32406C6.77178 11.1548 6.32406 11.6025 6.32406 12.1548V14.074C6.32406 14.6263 6.77178 15.074 7.32406 15.074H12.12C12.9419 15.074 13.4129 16.0103 12.9229 16.6702L6.08716 25.8763C5.59722 26.5361 6.0682 27.4724 6.89003 27.4724H20.4805C21.0328 27.4724 21.4805 27.0247 21.4805 26.4724V24.5532C21.4805 24.0009 21.0328 23.5532 20.4805 23.5532H14.8986C14.0768 23.5532 13.6058 22.6168 14.0957 21.957L20.9315 12.7509Z" fill="#231815"/>
<path d="M40.5143 10.6272C37.4456 10.6272 35.3499 11.6447 33.9652 12.926C32.356 14.3957 31.2333 16.6568 31.2333 19.3324C31.2333 21.9704 32.356 24.2315 33.9652 25.7012C35.3499 26.9825 37.4456 28 40.5143 28C43.583 28 45.6787 26.9825 47.0634 25.7012C48.6726 24.2315 49.7953 21.9704 49.7953 19.3324C49.7953 16.6568 48.6726 14.3957 47.0634 12.926C45.6787 11.6447 43.583 10.6272 40.5143 10.6272ZM40.5143 23.93C37.8572 23.93 35.9487 21.8196 35.9487 19.3324C35.9487 16.7699 37.8947 14.6972 40.5143 14.6972C43.1339 14.6972 45.0799 16.7699 45.0799 19.3324C45.0799 21.8196 43.1713 23.93 40.5143 23.93Z" fill="#231815"/>
<path d="M68.9361 10.6272C65.8674 10.6272 63.7717 11.6447 62.3871 12.926C60.7779 14.3957 59.6552 16.6568 59.6552 19.3324C59.6552 21.9704 60.7779 24.2315 62.3871 25.7012C63.7717 26.9825 65.8674 28 68.9361 28C72.0049 28 74.1006 26.9825 75.4852 25.7012C77.0944 24.2315 78.2171 21.9704 78.2171 19.3324C78.2171 16.6568 77.0944 14.3957 75.4852 12.926C74.1006 11.6447 72.0049 10.6272 68.9361 10.6272ZM68.9361 23.93C66.2791 23.93 64.3705 21.8196 64.3705 19.3324C64.3705 16.7699 66.3165 14.6972 68.9361 14.6972C71.5558 14.6972 73.5018 16.7699 73.5018 19.3324C73.5018 21.8196 71.5932 23.93 68.9361 23.93Z" fill="#231815"/>
<path d="M89.4201 26.4724C89.4201 27.0247 89.8678 27.4724 90.4201 27.4724H92.9858C93.538 27.4724 93.9858 27.0247 93.9858 26.4724V19.144C93.9858 18.2019 94.0232 17.0336 94.6968 15.9785C95.3704 14.961 96.306 14.5464 97.5035 14.5464C97.9526 14.5464 98.9256 14.6218 99.6367 15.3755C100.46 16.2423 100.497 17.6743 100.497 18.5787V26.4724C100.497 27.0247 100.945 27.4724 101.497 27.4724H104.063C104.615 27.4724 105.063 27.0247 105.063 26.4724V17.2221C105.063 15.6393 104.913 14.0188 103.791 12.6245C102.518 11.0417 100.423 10.6272 99.0005 10.6272C97.2303 10.6272 95.9557 11.2811 95.0496 12.0772C94.6754 12.406 93.9858 12.1648 93.9858 11.6667C93.9858 11.384 93.7566 11.1548 93.4738 11.1548H90.4201C89.8678 11.1548 89.4201 11.6025 89.4201 12.1548V26.4724Z" fill="#231815"/>
<path d="M129.482 22.3453C129.07 22.2785 128.668 22.483 128.408 22.8106C127.632 23.7901 126.471 24.3822 125.016 24.3822C123.257 24.3822 122.247 23.5155 121.761 22.8371C121.412 22.3611 121.18 21.7351 121.063 21.081C120.966 20.5373 121.422 20.0861 121.975 20.0861H132.723C132.931 20.0861 133.1 19.9174 133.1 19.7093C133.1 17.9381 132.875 15.3755 131.154 13.3028C130.031 11.9462 128.122 10.6272 124.829 10.6272C122.883 10.6272 120.638 11.0417 118.729 12.926C117.569 14.0942 116.259 16.0915 116.259 19.3324C116.259 21.895 117.008 24.0054 118.804 25.7012C120.413 27.2463 122.397 28 125.016 28C129.416 28 131.501 25.6476 132.439 24.0365C132.762 23.482 132.385 22.815 131.751 22.7125L129.482 22.3453ZM122.31 17.1467C121.69 17.1467 121.21 16.5775 121.478 16.0186C122.165 14.5849 123.578 13.8681 124.942 13.8681C126.311 13.8681 127.754 14.5655 128.447 16.0209C128.713 16.5794 128.232 17.1467 127.614 17.1467H122.31Z" fill="#231815"/>
<path d="M154.526 13.1601C154.892 12.7242 154.823 12.0649 154.335 11.772C152.613 10.7383 151.061 10.6272 150.032 10.6272C148.723 10.6272 147.076 10.7779 145.804 11.7954C144.868 12.5868 144.119 13.9058 144.119 15.4886C144.119 16.8075 144.606 17.825 145.354 18.6164C146.327 19.6339 147.675 20.1615 148.835 20.576L149.883 20.9529C150.481 21.179 151.305 21.5935 151.305 22.611C151.305 23.7416 150.332 24.3822 149.059 24.3822C148.085 24.3822 147.111 23.9487 146.306 23.3095C145.825 22.9275 145.105 22.9193 144.705 23.3852L143.652 24.6106C143.321 24.9959 143.327 25.5734 143.705 25.9128C144.813 26.9084 146.594 28 149.359 28C151.342 28 152.914 27.4724 154.224 26.2665C155.534 25.0606 156.02 23.5908 156.02 22.1211C156.02 21.066 155.683 20.0861 155.197 19.4078C154.261 18.1265 152.353 17.4859 151.08 17.0713L149.995 16.7322C148.723 16.3176 148.535 15.677 148.535 15.2625C148.535 14.4711 149.209 13.9435 150.294 13.9435C150.652 13.9435 151.335 13.9843 152.102 14.4113C152.604 14.6902 153.262 14.6666 153.631 14.227L154.526 13.1601Z" fill="#231815"/>
<path d="M176.41 13.1601C176.776 12.7242 176.707 12.0649 176.219 11.772C174.497 10.7383 172.945 10.6272 171.916 10.6272C170.606 10.6272 168.96 10.7779 167.687 11.7954C166.752 12.5868 166.003 13.9058 166.003 15.4886C166.003 16.8075 166.49 17.825 167.238 18.6164C168.211 19.6339 169.559 20.1615 170.719 20.576L171.766 20.9529C172.365 21.179 173.189 21.5935 173.189 22.611C173.189 23.7416 172.216 24.3822 170.943 24.3822C169.969 24.3822 168.995 23.9487 168.19 23.3095C167.709 22.9275 166.989 22.9193 166.589 23.3852L165.536 24.6106C165.205 24.9959 165.211 25.5734 165.589 25.9128C166.697 26.9084 168.478 28 171.243 28C173.226 28 174.798 27.4724 176.108 26.2665C177.417 25.0606 177.904 23.5908 177.904 22.1211C177.904 21.066 177.567 20.0861 177.081 19.4078C176.145 18.1265 174.236 17.4859 172.964 17.0713L171.879 16.7322C170.606 16.3176 170.419 15.677 170.419 15.2625C170.419 14.4711 171.093 13.9435 172.178 13.9435C172.536 13.9435 173.218 13.9843 173.986 14.4113C174.488 14.6902 175.145 14.6666 175.514 14.227L176.41 13.1601Z" fill="#231815"/>
<path d="M217.224 12.2311C217.224 11.8492 217.008 11.4963 216.656 11.3501C215.511 10.8761 214.288 10.6272 212.846 10.6272C211.274 10.6272 208.991 10.9664 207.008 12.7376C205.361 14.2073 204.201 16.5061 204.201 19.3701C204.201 22.4226 205.548 24.4576 206.783 25.6258C208.243 27.0202 210.488 28 213.033 28C214.554 28 215.779 27.6263 216.666 27.2435C217.013 27.0938 217.224 26.7442 217.224 26.3664V24.7692C217.224 23.8994 216.114 23.3777 215.29 23.6566C214.692 23.859 214.122 23.93 213.632 23.93C210.9 23.93 208.916 21.9704 208.916 19.2948C208.916 16.9206 210.451 14.6972 213.482 14.6972C214.14 14.6972 214.732 14.7895 215.269 14.9633C216.101 15.2318 217.224 14.7078 217.224 13.8344V12.2311Z" fill="#231815"/>
<path d="M240.762 11.6306C240.762 12.1067 240.064 12.3378 239.706 12.0248C238.267 10.7689 236.538 10.6272 235.561 10.6272C230.77 10.6272 227.515 14.4711 227.515 19.2948C227.515 24.0808 230.808 28 235.785 28C236.709 28 238.273 27.8328 239.703 26.5668C240.072 26.2402 240.762 26.4767 240.762 26.9695C240.762 27.2473 240.988 27.4724 241.265 27.4724H244.328C244.88 27.4724 245.328 27.0247 245.328 26.4724V12.1548C245.328 11.6025 244.88 11.1548 244.328 11.1548H241.238C240.975 11.1548 240.762 11.3678 240.762 11.6306ZM236.721 14.6972C239.34 14.6972 241.211 16.6945 241.211 19.2948C241.211 21.895 239.34 23.93 236.721 23.93C234.101 23.93 232.23 21.895 232.23 19.2948C232.23 16.6945 234.101 14.6972 236.721 14.6972Z" fill="#231815"/>
<path d="M257.353 26.4724C257.353 27.0247 257.8 27.4724 258.353 27.4724H260.918C261.47 27.4724 261.918 27.0247 261.918 26.4724V19.6339C261.918 18.5034 261.956 17.109 262.816 16.0162C263.715 14.8856 264.987 14.6972 265.848 14.6972C266.076 14.6972 266.285 14.7084 266.478 14.7315C267.218 14.8197 268.102 14.4292 268.205 13.6914L268.467 11.8083C268.533 11.3396 268.264 10.877 267.803 10.7675C267.455 10.6845 267.067 10.6272 266.634 10.6272C265.548 10.6272 264.65 10.891 263.939 11.3432C263.772 11.4368 263.447 11.6514 263.076 12.0147C262.72 12.3634 261.918 12.128 261.918 11.6293C261.918 11.3672 261.706 11.1548 261.444 11.1548H258.353C257.8 11.1548 257.353 11.6025 257.353 12.1548V26.4724Z" fill="#231815"/>
<path d="M290.532 9.83022C290.532 10.8307 288.874 11.4646 287.946 11.0911C286.947 10.6888 285.975 10.6272 285.331 10.6272C280.54 10.6272 277.285 14.4711 277.285 19.2948C277.285 24.0808 280.578 28 285.555 28C286.479 28 288.043 27.8328 289.473 26.5668C289.842 26.2402 290.532 26.4767 290.532 26.9695C290.532 27.2473 290.758 27.4724 291.035 27.4724H294.098C294.65 27.4724 295.098 27.0247 295.098 26.4724V0.999999C295.098 0.447715 294.65 0 294.098 0H291.532C290.98 0 290.532 0.447715 290.532 1V9.83022ZM286.491 14.6972C289.11 14.6972 290.982 16.6945 290.982 19.2948C290.982 21.895 289.11 23.93 286.491 23.93C283.871 23.93 282 21.895 282 19.2948C282 16.6945 283.871 14.6972 286.491 14.6972Z" fill="#231815"/>
<path d="M192.157 38V41L300 38V43H190.196V40L0 44V38H192.157Z" fill="#F9F7F2"/>
</svg>
