<svg viewBox="0 0 64 44" fill="none" xmlns="http://www.w3.org/2000/svg">
<path d="M8 14.7036L32 0L56 14.7036V22H8V14.7036Z" fill="black"/>
<path d="M8 37H56V44H8V37Z" fill="black"/>
<path d="M0.546875 34.6712V32.304C0.833333 32.554 1.11458 32.7415 1.39062 32.8665C1.66667 32.9915 1.94531 33.054 2.22656 33.054C2.61198 33.054 2.91406 32.9524 3.13281 32.7493C3.35677 32.5462 3.46875 32.2701 3.46875 31.9212C3.46875 31.4889 3.16927 31.0201 2.57031 30.5149C2.40365 30.3743 2.27865 30.2649 2.19531 30.1868C1.4974 29.5618 1.01823 29.0019 0.757812 28.5071C0.497396 28.0071 0.367188 27.442 0.367188 26.8118C0.367188 25.8274 0.643229 25.0332 1.19531 24.429C1.7526 23.8196 2.47917 23.5149 3.375 23.5149C3.69271 23.5149 4.00521 23.5618 4.3125 23.6556C4.625 23.7441 4.95312 23.8847 5.29688 24.0774V26.0931C4.89583 25.9003 4.58333 25.7675 4.35938 25.6946C4.14062 25.6217 3.94531 25.5852 3.77344 25.5852C3.44531 25.5852 3.17708 25.6894 2.96875 25.8977C2.76042 26.1009 2.65625 26.3691 2.65625 26.7024C2.65625 26.9941 2.73438 27.2675 2.89062 27.5227C3.04688 27.7727 3.41146 28.1451 3.98438 28.6399C4.75 29.2962 5.24219 29.8431 5.46094 30.2806C5.67969 30.7128 5.78906 31.2363 5.78906 31.8509C5.78906 32.8873 5.49479 33.7076 4.90625 34.3118C4.32292 34.9108 3.52604 35.2102 2.51562 35.2102C2.13021 35.2102 1.77344 35.166 1.44531 35.0774C1.1224 34.9889 0.822917 34.8535 0.546875 34.6712Z" fill="black"/>
<path d="M8.10938 35.0696V25.7727H6.36719V23.6634H12.1406V25.7727H10.3984V35.0696H8.10938Z" fill="black"/>
<path d="M14.9141 31.2962H16.4297C16.2734 30.4993 16.1328 29.666 16.0078 28.7962C15.8828 27.9212 15.7734 26.9993 15.6797 26.0306C15.5651 26.8847 15.4427 27.7519 15.3125 28.6321C15.1875 29.5071 15.0547 30.3951 14.9141 31.2962ZM11.875 35.0696L14.5312 23.6634H16.9141L19.4453 35.0696H17.1719L16.7891 33.0696H14.5L14.1484 35.0696H11.875Z" fill="black"/>
<path d="M21.0781 35.0696V29.7102L18.4375 23.6634H20.8359L21.5859 25.7259C21.7266 26.0957 21.8542 26.4655 21.9688 26.8352C22.0833 27.1998 22.1927 27.5722 22.2969 27.9524C22.3906 27.5306 22.4922 27.1373 22.6016 26.7727C22.7109 26.4082 22.8229 26.08 22.9375 25.7884L23.7656 23.6634H25.9922L23.3359 29.7102V35.0696H21.0781Z" fill="black"/>
<path d="M29.7891 35.0696V23.6634H32.0391V27.8821H34.5859V23.6634H36.8594V35.0696H34.5859V30.1087H32.0391V35.0696H29.7891Z" fill="black"/>
<path d="M42.2656 33.0384C42.849 33.0384 43.2839 32.7337 43.5703 32.1243C43.862 31.5149 44.0078 30.5983 44.0078 29.3743C44.0078 28.1399 43.862 27.2181 43.5703 26.6087C43.2839 25.9993 42.849 25.6946 42.2656 25.6946C41.6823 25.6946 41.2474 25.9993 40.9609 26.6087C40.6745 27.2128 40.5312 28.1347 40.5312 29.3743C40.5312 30.6087 40.6745 31.528 40.9609 32.1321C41.2474 32.7363 41.6823 33.0384 42.2656 33.0384ZM46.2812 29.5306C46.2812 31.2701 45.9167 32.653 45.1875 33.679C44.4583 34.6998 43.4844 35.2102 42.2656 35.2102C41.0052 35.2102 40.0234 34.6972 39.3203 33.6712C38.6172 32.6399 38.2656 31.2076 38.2656 29.3743C38.2656 27.5462 38.6198 26.1139 39.3281 25.0774C40.0417 24.0358 41.0208 23.5149 42.2656 23.5149C43.5156 23.5149 44.4974 24.0462 45.2109 25.1087C45.9245 26.1712 46.2812 27.6451 46.2812 29.5306Z" fill="black"/>
<path d="M47.1328 35.0696L48.25 23.6634H51.1797L51.7734 28.0149C51.862 28.6764 51.9349 29.3118 51.9922 29.9212C52.0547 30.5253 52.1042 31.1139 52.1406 31.6868C52.2344 30.6816 52.3125 29.8899 52.375 29.3118C52.4427 28.7285 52.4974 28.2962 52.5391 28.0149L53.2734 23.6634H56.1719L57.1328 35.0696H54.8281L54.5859 29.7727C54.5807 29.6477 54.5729 29.4602 54.5625 29.2102C54.4948 27.8248 54.4609 26.6894 54.4609 25.804L52.9766 35.0696H51.3281L49.9297 25.7415C49.9297 26.5175 49.8828 27.6269 49.7891 29.0696C49.7682 29.3977 49.7526 29.6425 49.7422 29.804L49.3906 35.0696H47.1328Z" fill="black"/>
<path d="M58.3672 35.0696V23.6634H63.1641V25.7727H60.5703V28.0774H62.9219V30.1712H60.5703V32.8431H63.1641V35.0696H58.3672Z" fill="black"/>
</svg>
