<svg viewBox="0 0 28 27" fill="none" xmlns="http://www.w3.org/2000/svg">
<path fill-rule="evenodd" clip-rule="evenodd" d="M27.9914 1.88661C27.9914 1.63203 27.9319 1.382 27.819 1.16192C27.7061 0.941836 27.5439 0.759542 27.3487 0.633552C27.1536 0.507563 26.9325 0.442369 26.7079 0.444592C26.4834 0.446815 26.2633 0.516377 26.0701 0.64621C25.3251 1.14931 24.5228 1.53461 23.6857 1.79141C22.4909 0.629298 20.9671 -0.00656872 19.3927 5.11721e-05C17.6658 0.00239715 16.0072 0.765392 14.7672 2.12794C14.0281 2.94017 13.4721 3.92757 13.1318 5.00713C12.9013 5.73855 12.7697 6.51228 12.7471 7.30252C11.9036 7.15006 11.0796 6.91173 10.2841 6.59337C7.86862 5.62664 5.71612 3.92195 4.0772 1.64285C3.94593 1.46252 3.77836 1.32058 3.5886 1.22896C3.39884 1.13735 3.19244 1.09875 2.98678 1.11641C2.78116 1.1357 2.58278 1.21144 2.40876 1.33708C2.23474 1.46272 2.09032 1.6345 1.98797 1.83757C1.46314 2.87589 1.16174 4.03988 1.10824 5.23503C1.05474 6.43017 1.25065 7.62278 1.68005 8.71599L1.67751 8.71743C1.48409 8.85216 1.32446 9.04097 1.21395 9.26576C1.10344 9.49054 1.04575 9.74376 1.04641 10.0011C1.04437 10.2128 1.05585 10.4244 1.08077 10.6343C1.21071 12.4488 1.92007 14.1473 3.07585 15.4112C2.99742 15.5807 2.94959 15.7662 2.93517 15.9569C2.92076 16.1476 2.94003 16.3397 2.99187 16.5218C3.21494 17.3099 3.54933 18.0437 3.97683 18.6976C4.51489 19.5207 5.20044 20.2172 5.99721 20.7363C5.01009 21.1689 3.96948 21.41 2.91875 21.4535C2.42304 21.474 1.92507 21.4505 1.4294 21.3824C1.14333 21.3421 0.853666 21.4131 0.607838 21.5838C0.362011 21.7544 0.174593 22.0147 0.0762815 22.3218C-0.0220303 22.629 -0.0254091 22.9649 0.0666984 23.2746C0.158806 23.5842 0.34094 23.8492 0.583271 24.0262C3.24279 25.9676 6.33932 26.9996 9.50259 26.9988C13.0897 27.0446 16.5896 25.7453 19.4579 23.303C22.3262 20.8607 24.4021 17.4124 25.3627 13.4944C25.8118 11.7878 26.0411 10.0166 26.0434 8.2357L26.0421 7.94723C26.7065 7.13492 27.2212 6.18043 27.5559 5.13972C27.8906 4.09901 28.0387 2.99303 27.9914 1.88661ZM23.5434 8.23947L23.5379 6.99866L24.1367 6.26659C24.5884 5.71434 24.948 5.05313 25.1846 4.31727C25.222 4.20111 25.2561 4.08365 25.2869 3.96509C24.9937 4.08309 24.6959 4.18859 24.394 4.2812L23.0213 4.70228L21.9767 3.68624C21.2272 2.95725 20.3114 2.59236 19.4028 2.59618L19.396 2.59621C18.3897 2.59757 17.3768 3.04022 16.5842 3.91112C15.7853 4.78906 15.2846 6.02838 15.246 7.37934L15.1607 10.3739L12.3185 9.86022C9.01688 9.26353 6.00109 7.57256 3.62513 5.0714C3.61635 5.16564 3.60981 5.2604 3.60555 5.35559C3.56866 6.17949 3.70442 6.99595 3.99489 7.73545L4.8387 9.88368L3.58672 10.5931C3.70299 11.7785 4.17865 12.847 4.88874 13.6236L6.07593 14.9219L5.50659 16.1523C5.8801 17.1927 6.53508 18.0219 7.32584 18.5371L11.3953 21.1885L6.96923 23.1282C6.45016 23.3556 5.91868 23.542 5.3788 23.6865C6.71182 24.1606 8.10172 24.403 9.50198 24.4027L9.51764 24.4027L9.53331 24.4029C12.5105 24.4409 15.4428 23.3645 17.8728 21.2954C20.3073 19.2225 22.104 16.2635 22.94 12.8539L22.9454 12.8319L22.9511 12.81C23.3408 11.3291 23.5407 9.78944 23.5434 8.23947Z" fill="#333"/>
</svg>
