<svg width="1920" height="1080" viewBox="0 0 1920 1080" fill="none" xmlns="http://www.w3.org/2000/svg">
<path d="M1364.94 357.909C1362.56 357.909 1360.62 359.823 1360.62 362.249C1360.62 364.642 1362.56 366.588 1364.94 366.588C1367.33 366.588 1369.26 364.642 1369.26 362.249C1369.26 359.823 1367.29 357.909 1364.94 357.909ZM1364.94 360.079C1366.09 360.079 1367.1 361.004 1367.1 362.249C1367.1 363.493 1366.09 364.418 1364.94 364.418C1363.73 364.418 1362.78 363.461 1362.78 362.249C1362.78 361.068 1363.73 360.079 1364.94 360.079ZM1340.21 362.312V367.354H1358.49C1357.54 373.417 1355.5 380.374 1342.21 382.831L1344.5 387.617C1350.67 386.405 1355.37 383.596 1358.46 380.278C1361.41 377.087 1362.84 373.194 1363.73 368.599L1358.46 362.312H1340.21Z" fill="white"/>
<path d="M1369.52 362.281V386.149H1394.12V362.281H1369.52ZM1388.97 381.395H1374.67V367.067H1388.97V381.395Z" fill="white"/>
<path d="M1398.06 362.217V367.258H1417.26C1416.15 374.598 1412.81 380.469 1400.16 382.831L1402.42 387.585C1420.19 383.852 1422.54 372.3 1423.05 362.217H1398.06Z" fill="white"/>
<path d="M1442.6 374.63C1444.7 373.034 1447.11 371.056 1449.78 367.929L1445.91 364.993C1441.23 370.992 1434.18 375.491 1427.34 377.502L1429.41 381.618C1432.33 380.661 1435.16 379.352 1437.9 377.789V388H1442.6V374.63Z" fill="white"/>
<path d="M1454.04 371.375V376.64H1481.25V371.375H1454.04Z" fill="white"/>
<path d="M1490.95 361.61H1485.9V369.205C1485.9 376.385 1484.85 380.278 1481.44 384.011L1485.29 387.936C1488.69 384.649 1490.95 379.544 1490.95 368.758V361.61ZM1499.56 360.813H1494.51V387.266C1506.68 386.787 1509.67 378.204 1511.01 372.556L1506.18 370.481C1504.9 378.331 1501.6 379.927 1499.56 380.884V360.813Z" fill="white"/>
<path fill-rule="evenodd" clip-rule="evenodd" d="M1528.39 310.292L1534.71 316.638C1535.1 317.028 1535.1 317.659 1534.71 318.048L1528.39 324.394C1528 324.784 1527.37 324.784 1526.98 324.394C1526.59 324.005 1526.59 323.374 1526.98 322.984L1531.61 318.34L1235.99 318.34C1235.44 318.34 1235 317.894 1235 317.343C1235 316.792 1235.44 316.346 1235.99 316.346L1531.61 316.346L1526.98 311.702C1526.59 311.313 1526.59 310.681 1526.98 310.292C1527.37 309.903 1528 309.903 1528.39 310.292Z" fill="white"/>
</svg>
