<svg width="300" height="78" viewBox="0 0 300 78" fill="none" xmlns="http://www.w3.org/2000/svg">
<path d="M129.942 47.9088C127.558 47.9088 125.619 49.8234 125.619 52.2486C125.619 54.6419 127.558 56.5884 129.942 56.5884C132.326 56.5884 134.265 54.6419 134.265 52.2486C134.265 49.8234 132.294 47.9088 129.942 47.9088ZM129.942 50.0787C131.086 50.0787 132.103 51.0041 132.103 52.2486C132.103 53.4931 131.086 54.4185 129.942 54.4185C128.734 54.4185 127.78 53.4612 127.78 52.2486C127.78 51.0679 128.734 50.0787 129.942 50.0787ZM105.211 52.3124V57.3542H123.489C122.535 63.4171 120.501 70.3735 107.213 72.8306L109.502 77.6171C115.669 76.4045 120.373 73.5964 123.457 70.2778C126.413 67.0868 127.844 63.1937 128.734 58.5987L123.457 52.3124H105.211Z" fill="white"/>
<path d="M134.519 52.2805V76.1492H159.123V52.2805H134.519ZM153.973 71.3946H139.669V57.067H153.973V71.3946Z" fill="white"/>
<path d="M163.065 52.2167V57.2585H182.265C181.152 64.5978 177.815 70.4692 165.163 72.8306L167.42 77.5852C185.189 73.8517 187.542 62.3003 188.05 52.2167H163.065Z" fill="white"/>
<path d="M207.6 64.6297C209.698 63.0342 212.114 61.0558 214.784 57.9286L210.906 54.9929C206.233 60.992 199.176 65.4913 192.342 67.5016L194.408 71.618C197.332 70.6607 200.162 69.3524 202.895 67.7888V78H207.6V64.6297Z" fill="white"/>
<path d="M219.044 61.3749V66.64H246.254V61.3749H219.044Z" fill="white"/>
<path d="M255.95 51.6104H250.895V59.205C250.895 66.3848 249.846 70.2778 246.445 74.0112L250.291 77.9362C253.693 74.6494 255.95 69.5438 255.95 58.7583V51.6104ZM264.564 50.8127H259.51V77.2661C271.685 76.7874 274.673 68.2036 276.008 62.5555L271.176 60.4814C269.905 68.3313 266.599 69.9268 264.564 70.8841V50.8127Z" fill="white"/>
<path fill-rule="evenodd" clip-rule="evenodd" d="M293.387 0.29207L299.709 6.63814C300.097 7.02756 300.097 7.65895 299.709 8.04838L293.387 14.3944C292.999 14.7839 292.37 14.7839 291.982 14.3944C291.594 14.005 291.594 13.3736 291.982 12.9842L296.608 8.34045L0.993377 8.34042C0.44475 8.34042 -4.79625e-08 7.89396 0 7.34323C4.79625e-08 6.7925 0.44475 6.34604 0.993378 6.34604L296.608 6.34607L291.982 1.70231C291.594 1.31288 291.594 0.681496 291.982 0.29207C292.37 -0.0973566 292.999 -0.0973566 293.387 0.29207Z" fill="white"/>
</svg>
