<svg viewBox="0 0 100 100" fill="none" xmlns="http://www.w3.org/2000/svg">
<circle cx="50.5" cy="50.5" r="41.5" fill="#FCDB00"/>
<path d="M32.3897 44.1302C32.9005 43.4734 32.4325 42.5163 31.6003 42.5163H18.4576C17.9053 42.5163 17.4576 42.964 17.4576 43.5163V45.3514C17.4576 45.9037 17.9053 46.3514 18.4576 46.3514H23.3916C24.2237 46.3514 24.6918 47.3085 24.1809 47.9653L17.2553 56.8698C16.7444 57.5266 17.2125 58.4837 18.0446 58.4837H31.9928C32.5451 58.4837 32.9928 58.036 32.9928 57.4837V55.6486C32.9928 55.0963 32.5451 54.6486 31.9928 54.6486H26.2534C25.4212 54.6486 24.9531 53.6915 25.464 53.0347L32.3897 44.1302Z" fill="#231815"/>
<path d="M42.623 42C39.4776 42 37.3295 42.9957 35.9103 44.2495C34.2608 45.6876 33.1101 47.9002 33.1101 50.5184C33.1101 53.0998 34.2608 55.3124 35.9103 56.7505C37.3295 58.0043 39.4776 59 42.623 59C45.7684 59 47.9165 58.0043 49.3357 56.7505C50.9852 55.3124 52.1359 53.0998 52.1359 50.5184C52.1359 47.9002 50.9852 45.6876 49.3357 44.2495C47.9165 42.9957 45.7684 42 42.623 42ZM42.623 55.0174C39.8995 55.0174 37.9433 52.9523 37.9433 50.5184C37.9433 48.0108 39.9379 45.9826 42.623 45.9826C45.3081 45.9826 47.3027 48.0108 47.3027 50.5184C47.3027 52.9523 45.3465 55.0174 42.623 55.0174Z" fill="#231815"/>
<path d="M57.3367 42C54.1913 42 52.0432 42.9957 50.6239 44.2495C48.9745 45.6876 47.8238 47.9002 47.8238 50.5184C47.8238 53.0998 48.9745 55.3124 50.6239 56.7505C52.0432 58.0043 54.1913 59 57.3367 59C60.4821 59 62.6302 58.0043 64.0494 56.7505C65.6989 55.3124 66.8496 53.0998 66.8496 50.5184C66.8496 47.9002 65.6989 45.6876 64.0494 44.2495C62.6302 42.9957 60.4821 42 57.3367 42ZM57.3367 55.0174C54.6132 55.0174 52.657 52.9523 52.657 50.5184C52.657 48.0108 54.6516 45.9826 57.3367 45.9826C60.0218 45.9826 62.0164 48.0108 62.0164 50.5184C62.0164 52.9523 60.0602 55.0174 57.3367 55.0174Z" fill="#231815"/>
<path d="M67.9661 57.4837C67.9661 58.036 68.4138 58.4837 68.9661 58.4837H71.6459C72.1981 58.4837 72.6459 58.036 72.6459 57.4837V50.3341C72.6459 49.4121 72.6842 48.269 73.3747 47.2364C74.0651 46.2408 75.0241 45.8351 76.2516 45.8351C76.7119 45.8351 77.7092 45.9089 78.438 46.6464C79.2819 47.4946 79.3203 48.8959 79.3203 49.7809V57.4837C79.3203 58.036 79.768 58.4837 80.3203 58.4837H83C83.5523 58.4837 84 58.036 84 57.4837V48.4534C84 46.9046 83.8466 45.3189 82.6958 43.9544C81.3916 42.4056 79.2435 42 77.7859 42C75.9477 42 74.6308 42.6568 73.6999 43.4497C73.3226 43.7711 72.6459 43.5272 72.6459 43.0316V43.0316C72.6459 42.747 72.4152 42.5163 72.1306 42.5163H68.9661C68.4138 42.5163 67.9661 42.964 67.9661 43.5163V57.4837Z" fill="#231815"/>
<path d="M60 65V71L89.5 65L91 75H58V69L10 77L11.5 65H60Z" fill="#F9F7F2"/>
</svg>
